<svg xmlns="http://www.w3.org/2000/svg" viewBox="0 0 2030 483"><circle cx="328.32" cy="269.5" r="25.29" fill="#fff"/><path d="M328.63 295c36.15 0 255.14 25.28 221.65 47.9a396.64 396.64 0 0 1-63.11 34.36c-9.31 3.93-18.92 7.52-28.61 10.68a411 411 0 0 1-126.22 19.78c-43.44 0-85.26-6.62-124.29-19.69a321 321 0 0 1-78.77-38.58 586.35 586.35 0 0 1-9.36-6.49c-15.84-11.23 155.9-48 207.65-48m8.06-151h-1.06c-108.74 0-233 36.16-293.6 124.9C10 314.2 52.29 353.14 93.16 382.12c3.39 2.4 6.77 4.74 10.1 7a368.89 368.89 0 0 0 90.55 44.43c44.41 14.87 92 22.18 139.53 22.18a456.21 456.21 0 0 0 141.15-22.17q16.49-5.38 32.33-12.07a445 445 0 0 0 71.33-38.82c37.52-25.34 71.17-58.4 64-90.66C635 260 586 226 559.48 208.24 494.84 164.93 415.47 144 335.63 144z" fill="#363636"/><circle cx="349.99" cy="300" r="47.47" fill="#363636"/><circle cx="335.71" cy="299.87" r="110.44" fill="none" stroke="#363636" stroke-miterlimit="10" stroke-width="33.535"/><path d="M932.1 368.37q-21.4 15.69-41.19 22.15a136.37 136.37 0 0 1-42.49 6.48q-37.42 0-57.57-15.8t-20.12-40.33a47.9 47.9 0 0 1 7.6-26.29 57.89 57.89 0 0 1 19.91-19.1A101.15 101.15 0 0 1 826 284.59q11.34-2.58 34.24-5 46.66-4.78 68.7-11.44c.14-4.55.22-7.44.22-8.67q0-20.3-10.92-28.61-14.76-11.25-43.87-11.25-27.18 0-40.13 8.21T815 256.9l-37.67-4.42q5.13-20.86 16.91-33.68t34-19.75q22.25-6.92 51.57-6.92 29.11 0 47.3 5.9t26.75 14.86a49.29 49.29 0 0 1 12 22.61q1.92 8.49 1.93 30.63v44.29q0 46.33 2.46 58.6a67.46 67.46 0 0 0 9.75 23.53h-40.19a63.21 63.21 0 0 1-7.71-24.18zm-3.21-74.19q-21 7.4-62.92 12.55-23.75 3-33.6 6.65t-15.19 10.79a25.61 25.61 0 0 0-5.35 15.83q0 13.29 11.66 22.15t34.14 8.85q22.25 0 39.59-8.4t25.47-23q6.19-11.25 6.2-33.22zM1069.5 392.55l-69.55-196h39.81l36.16 113.13 13.49 42.07q.85-3.13 11.77-40.41l36.17-114.79h39.59l34 113.68 11.34 37.46 13.06-37.83 39-113.31h37.45l-71 196h-40l-36.17-117.38-8.78-33.4-46 150.78zM1492.4 368.37q-21.4 15.69-41.2 22.15a136.3 136.3 0 0 1-42.48 6.46q-37.46 0-57.57-15.78T1331 340.87a47.82 47.82 0 0 1 7.6-26.29 57.86 57.86 0 0 1 19.9-19.1 101.35 101.35 0 0 1 27.72-10.89q11.34-2.58 34.24-5 46.66-4.78 68.7-11.44c.14-4.55.22-7.44.22-8.67q0-20.3-10.92-28.61-14.76-11.25-43.87-11.25-27.18 0-40.13 8.21t-19.15 29.06l-37.67-4.42q5.13-20.86 16.91-33.68t34-19.75q22.26-6.92 51.58-6.92 29.1 0 47.3 5.9t26.75 14.86q8.57 9 12 22.61 1.92 8.49 1.92 30.63v44.29q0 46.33 2.47 58.6a67.46 67.46 0 0 0 9.73 23.53h-40.23a63 63 0 0 1-7.67-24.17zm-3.21-74.19q-21 7.4-62.92 12.55-23.76 3-33.6 6.65t-15.19 10.79a25.61 25.61 0 0 0-5.35 15.78q0 13.29 11.66 22.15t34.13 8.86q22.26 0 39.6-8.4t25.47-23q6.19-11.25 6.2-33.22zM1588.07 392.55V122h38.52v154.28l91.17-79.72h49.87l-86.89 72.71 95.67 123.28h-47.52l-75.12-100.21-27.18 22.51v77.7zM1962.6 329.43l39.81 4.25q-9.42 30.07-34.89 46.69T1902.46 397q-49.86 0-79.08-26.49t-29.21-74.28q0-49.45 29.53-76.77t76.62-27.31q45.59 0 74.48 26.76t28.89 75.29c0 2-.07 4.93-.21 8.86H1834q2.13 32.29 21.18 49.46t47.52 17.16q21.18 0 36.16-9.59t23.74-30.66zm-126.48-53.7H1963q-2.57-24.74-14.55-37.1-18.42-19.19-47.73-19.19-26.54 0-44.62 15.32t-19.98 40.97zM609.43 237.74l-67.73 50.68c-4 3-10 .73-6.56-2.52l58.94-55.41c11.06-2.92 17.41-.09 15.42 6.86zM562.32 187.84l-66.46 56.83c-4 3.39-12 .61-8.82-3.06l54.2-62.47h.06c12.57-3.11 21.24.3 21 8.26zM491.06 153.62l-60.83 64.78c-3.64 3.87-13.52 1.13-10.85-3l45.4-70.48h.06c13.5-3.89 24.27-.5 26.12 8.23zM409 121.67l-48.08 79.7c-2.87 4.76-12.38 3.3-10.44-1.6l33-83.52h.06c12-6.3 22.44-4.27 25.27 4.92zM317.17 95.57l-26.23 92.51c-1.56 5.52-11.3 5.15-10.69-.41l10.42-94.74h.05c10.15-8.35 20.94-7.47 26.15 2.13z" fill="#363636"/></svg>